<svg width="60" height="60" viewBox="0 0 60 60" fill="none" xmlns="http://www.w3.org/2000/svg">
  <rect width="60" height="60" rx="30" fill="#4F46E5" fill-opacity="0.1"/>
  <path d="M36 20H24C22.9 20 22 20.9 22 22V38C22 39.1 22.9 40 24 40H36C37.1 40 38 39.1 38 38V22C38 20.9 37.1 20 36 20ZM36 38H24V22H36V38Z" fill="#4F46E5"/>
  <path d="M30 26H26V28H30V26Z" fill="#4F46E5"/>
  <path d="M34 26H31V28H34V26Z" fill="#4F46E5"/>
  <path d="M30 29H26V31H30V29Z" fill="#4F46E5"/>
  <path d="M34 29H31V31H34V29Z" fill="#4F46E5"/>
  <path d="M30 32H26V34H30V32Z" fill="#4F46E5"/>
  <path d="M34 32H31V34H34V32Z" fill="#4F46E5"/>
  <path d="M34 35H26V37H34V35Z" fill="#4F46E5"/>
</svg> 