<svg width="60" height="60" viewBox="0 0 60 60" fill="none" xmlns="http://www.w3.org/2000/svg">
  <rect width="60" height="60" rx="30" fill="#4F46E5" fill-opacity="0.1"/>
  <path d="M37 22H23C21.9 22 21 22.9 21 24V36C21 37.1 21.9 38 23 38H37C38.1 38 39 37.1 39 36V24C39 22.9 38.1 22 37 22ZM37 36H23V24H37V36Z" fill="#4F46E5"/>
  <path d="M26 28C27.1 28 28 27.1 28 26C28 24.9 27.1 24 26 24C24.9 24 24 24.9 24 26C24 27.1 24.9 28 26 28Z" fill="#4F46E5"/>
  <path d="M31 32L29 30L24 36H36L31 32Z" fill="#4F46E5"/>
</svg> 