<svg width="100" height="100" viewBox="0 0 100 100" fill="none" xmlns="http://www.w3.org/2000/svg">
  <rect width="100" height="100" rx="20" fill="#3B82F6"/>
  <path d="M22 60.5C22 68.5081 28.4919 75 36.5 75C44.5081 75 51 68.5081 51 60.5C51 52.4919 44.5081 46 36.5 46C28.4919 46 22 52.4919 22 60.5Z" fill="white"/>
  <rect x="58" y="46" width="20" height="29" rx="4" fill="white"/>
  <path d="M65 35C65 37.7614 62.7614 40 60 40C57.2386 40 55 37.7614 55 35C55 32.2386 57.2386 30 60 30C62.7614 30 65 32.2386 65 35Z" fill="white"/>
  <path d="M85 35C85 37.7614 82.7614 40 80 40C77.2386 40 75 37.7614 75 35C75 32.2386 77.2386 30 80 30C82.7614 30 85 32.2386 85 35Z" fill="white"/>
  <path d="M75 35H65" stroke="white" stroke-width="3" stroke-linecap="round"/>
  <path d="M32 32C32 34.7614 29.7614 37 27 37C24.2386 37 22 34.7614 22 32C22 29.2386 24.2386 27 27 27C29.7614 27 32 29.2386 32 32Z" fill="white"/>
  <path d="M46 32C46 34.7614 43.7614 37 41 37C38.2386 37 36 34.7614 36 32C36 29.2386 38.2386 27 41 27C43.7614 27 46 29.2386 46 32Z" fill="white"/>
  <path d="M36 32H32" stroke="white" stroke-width="3" stroke-linecap="round"/>
</svg> 